<svg width="240.00000000000003" height="240.00000000000003" xmlns="http://www.w3.org/2000/svg">

 <g>
  <title>background</title>
  <rect fill="none" id="canvas_background" height="242" width="242" y="-1" x="-1"/>
 </g>
 <g>
  <title>Layer 1</title>
  <path stroke="null" id="svg_1" d="m120,21.12233c-56.44084,0 -102.21703,45.3917 -102.21703,101.37733c0,44.79188 29.28518,82.79149 69.90793,96.19864c5.10233,0.93774 6.75484,-2.20496 6.75484,-4.87456l0,-18.87308c-28.43337,6.13333 -34.35344,-11.96253 -34.35344,-11.96253c-4.65087,-11.71753 -11.35461,-14.83488 -11.35461,-14.83488c-9.2762,-6.29384 0.707,-6.15867 0.707,-6.15867c10.26429,0.70964 15.66476,10.45031 15.66476,10.45031c9.11435,15.49384 23.91027,11.01634 29.74515,8.42277c0.91144,-6.54729 3.56056,-11.02478 6.49078,-13.55077c-22.7007,-2.57667 -46.56837,-11.26978 -46.56837,-50.10575c0,-11.07547 3.99498,-20.11495 10.52835,-27.21137c-1.05624,-2.55978 -4.55718,-12.87492 0.99662,-26.8312c0,0 8.58623,-2.72029 28.1182,10.39118c8.15181,-2.2472 16.89136,-3.3708 25.57981,-3.41304c8.68845,0.04224 17.43652,1.16584 25.60537,3.41304c19.51493,-13.11147 28.08413,-10.39118 28.08413,-10.39118c5.56231,13.96473 2.06138,24.27987 1.00513,26.8312c6.55893,7.09641 10.51984,16.14434 10.51984,27.21137c0,38.93734 -23.91027,47.51218 -46.67059,50.02126c3.66278,3.1427 7.01038,9.30982 7.01038,18.7717l0,27.81963c0,2.69495 1.63547,5.86299 6.82299,4.86611c40.58868,-13.42405 69.83978,-51.4152 69.83978,-96.19019c0,-55.98563 -45.76767,-101.37733 -102.21703,-101.37733z"/>
 </g>
</svg>