<svg width="240" height="240" xmlns="http://www.w3.org/2000/svg" preserveAspectRatio="xMidYMid">

 <g>
  <title>background</title>
  <rect fill="none" id="canvas_background" height="242" width="242" y="-1" x="-1"/>
 </g>
 <g>
  <title>Layer 1</title>
  <g stroke="null" id="svg_1">
   <path stroke="null" id="svg_2" fill="#1A1918" d="m119.83542,20.32117c-50.06761,0 -91.08314,40.37614 -94.97828,91.6832l51.08254,22.08926c4.32716,-3.09875 9.55955,-4.90399 15.18281,-4.90399c0.50746,0 1.00807,0.01422 1.50182,0.04265l22.71935,-34.44161l0,-0.48329c0,-20.72467 16.12231,-37.59012 35.94088,-37.59012c19.81857,0 35.94088,16.86545 35.94088,37.59012c0,20.72466 -16.12231,37.59721 -35.94088,37.59721c-0.27431,0 -0.54175,-0.0071 -0.81606,-0.01421l-32.40234,24.17168c0.02057,0.44775 0.03429,0.89551 0.03429,1.33615c0,15.56482 -12.10373,28.22279 -26.97794,28.22279c-13.05695,0 -23.98116,-9.75111 -26.44991,-22.65783l-36.53749,-15.79936c11.31509,41.84024 48.07204,72.51502 91.70032,72.51502c52.63922,0 95.30744,-44.63337 95.30744,-99.67883c0,-55.05257 -42.66822,-99.67883 -95.30744,-99.67883zm-35.25237,151.24601l-11.70599,-5.06035c2.07101,4.5202 5.66441,8.30124 10.43047,10.37655c10.30017,4.49177 22.1776,-0.61833 26.47048,-11.39998c2.07786,-5.21671 2.09158,-10.97356 0.03429,-16.20447c-2.05729,-5.23092 -5.94557,-9.31047 -10.93107,-11.48528c-4.95807,-2.15349 -10.26588,-2.07531 -14.92907,-0.23454l12.09687,5.23092c7.59826,3.31196 11.19166,12.43765 8.02343,20.38352c-3.16137,7.94588 -11.89115,11.7056 -19.48941,8.39364zm90.6511,-77.25909c0,-13.80934 -10.74592,-25.05297 -23.94687,-25.05297c-13.20781,0 -23.95372,11.24362 -23.95372,25.05297c0,13.80933 10.74592,25.04586 23.95372,25.04586c13.20095,0 23.94687,-11.23653 23.94687,-25.04586zm-41.90016,-0.04265c0,-10.39076 8.05772,-18.81282 17.98758,-18.81282c9.93672,0 17.99444,8.42206 17.99444,18.81282c0,10.39077 -8.05772,18.81283 -17.99444,18.81283c-9.92986,0 -17.98758,-8.42206 -17.98758,-18.81283z"/>
  </g>
 </g>
</svg>